<svg xmlns="http://www.w3.org/2000/svg" width="24" height="24"><g fill="none" fill-rule="evenodd"><rect width="23" height="23" x=".5" y=".5" fill="#FFF" stroke="#B00" rx="2"/><path fill="#666" fill-rule="nonzero" d="M8.337 18.108L16.79 6.822 15.7 6 7.23 17.337l1.107.771zm-.033-6.088c.961 0 1.752-.276 2.373-.83.62-.553.93-1.277.93-2.171 0-.895-.31-1.616-.93-2.164-.62-.548-1.412-.821-2.373-.821-.962 0-1.753.273-2.373.821C5.31 7.403 5 8.125 5 9.02c0 .894.307 1.62.922 2.18.626.548 1.42.821 2.382.821zm0-1.56c-.425 0-.78-.13-1.065-.393-.285-.263-.428-.612-.428-1.048 0-.425.143-.769.428-1.032.285-.262.64-.394 1.065-.394.436 0 .796.132 1.081.394.285.263.428.607.428 1.032 0 .436-.14.785-.42 1.048-.279.262-.642.394-1.09.394zm7.412 7.631c.962 0 1.753-.276 2.373-.83.62-.553.93-1.277.93-2.172 0-.894-.31-1.615-.93-2.163-.62-.548-1.411-.822-2.373-.822-.961 0-1.752.274-2.373.822-.62.548-.93 1.269-.93 2.163 0 .895.307 1.621.922 2.18.626.548 1.42.822 2.381.822zm0-1.56c-.425 0-.78-.13-1.065-.393-.285-.263-.427-.613-.427-1.049 0-.424.142-.768.427-1.031.285-.263.64-.394 1.065-.394.436 0 .797.131 1.082.394.285.263.427.607.427 1.031 0 .436-.14.786-.419 1.049-.28.262-.643.394-1.09.394z"/></g></svg>