<svg xmlns="http://www.w3.org/2000/svg" width="186" height="56" viewBox="0 0 186 56">
  <g fill="none" fill-rule="evenodd">
    <path fill="#000" fill-rule="nonzero" d="M18.233,48.305 L96.759,48.305 L96.759,47.616 L18.233,47.616 L18.233,48.306 L18.233,48.305 Z M116.243,48.305 L131.849,48.305 L131.849,47.616 L116.243,47.616 L116.243,48.306 L116.243,48.305 Z M4.837,41.481 L4.837,8.216 C4.837,5.808 4.613,4.148 4.167,3.243 C3.701,2.33 2.72,1.602 1.223,1.05 L1.223,0.816 L15.733,0.816 L15.733,1.05 C14.219,1.602 13.237,2.32 12.792,3.215 C12.344,4.099 12.121,5.768 12.121,8.215 L12.121,36.187 C12.121,41.422 10.741,45.385 7.983,48.085 C6.623,49.377 5.361,50.377 4.196,51.095 C3.021,51.823 1.622,52.523 0,53.202 L0,52.922 C3.224,50.91 4.837,47.094 4.837,41.481 L4.837,41.481 Z M29.729,25.407 C26.184,25.407 24.407,27.679 24.407,32.224 C24.407,34.293 24.815,35.799 25.62,36.75 C26.436,37.693 27.427,38.168 28.592,38.168 C29.767,38.168 30.972,37.838 32.215,37.178 L32.215,25.806 C31.215,25.543 30.389,25.407 29.729,25.407 L29.729,25.407 Z M17.53,34.021 C17.53,30.933 18.618,28.514 20.803,26.786 C22.989,25.046 26.786,24.126 32.215,24.009 L32.215,19.997 C32.215,15.17 30.263,12.762 26.359,12.762 C24.824,12.762 23.231,13.199 21.591,14.083 C22.775,14.268 23.726,14.675 24.465,15.315 C25.203,15.946 25.571,16.725 25.571,17.647 C25.571,18.56 25.221,19.377 24.523,20.085 C23.823,20.793 22.989,21.152 22.018,21.152 C21.036,21.152 20.211,20.813 19.531,20.134 C18.861,19.443 18.521,18.588 18.521,17.54 C18.521,15.569 19.619,13.917 21.803,12.596 C23.99,11.266 26.591,10.605 29.612,10.605 C35.934,10.605 39.092,14.035 39.092,20.89 L39.092,33.565 C39.072,35.683 39.344,37.07 39.917,37.712 C40.49,38.362 41.49,38.752 42.937,38.907 L42.937,39.141 C42.325,39.723 41.354,40.275 40.033,40.791 C37.188,41.888 35.042,41.82 33.575,40.588 C32.856,39.946 32.419,39.053 32.273,37.916 C29.563,40.431 26.942,41.702 24.416,41.723 C22.484,41.723 20.852,41.043 19.522,39.673 C18.191,38.313 17.53,36.429 17.53,34.021 L17.53,34.021 Z M47.667,37.838 C45.502,35.235 44.423,31.544 44.423,26.777 C44.423,21.998 45.657,18.114 48.113,15.093 C50.579,12.102 53.786,10.605 57.748,10.605 C59.962,10.605 61.808,11.1 63.264,12.082 C64.731,13.052 65.46,14.239 65.46,15.637 C65.46,17.044 65.1,18.141 64.381,18.938 C63.653,19.736 62.761,20.142 61.702,20.162 C60.642,20.162 59.739,19.822 58.992,19.142 C58.272,18.473 57.923,17.608 57.943,16.578 C57.943,14.694 58.758,13.286 60.39,12.345 C59.953,12.121 59.312,12.005 58.457,12.005 C53.689,12.005 51.3,16.132 51.3,24.388 C51.3,28.593 52.077,31.69 53.63,33.701 C55.174,35.711 57.166,36.711 59.593,36.711 C62.022,36.711 64.149,35.799 65.975,33.981 L66.256,34.215 C64.003,39.199 60.565,41.702 55.96,41.7232287 C52.591,41.743 49.823,40.451 47.667,37.838 L47.667,37.838 Z M97.218,41.023 L90.284,41.023 C88.379,41.023 87.079,40.733 86.38,40.141 C85.68,39.556 84.593,37.946 83.106,35.303 L77.707,25.622 L81.717,20.736 C83.932,18.054 85.039,16.18 85.039,15.093 C85.039,13.538 83.874,12.393 81.543,11.655 L81.543,11.305 L95.993,11.305 L95.993,11.595 C94.3758434,11.9838001 92.8449097,12.6694143 91.478,13.617 C90.051,14.587 88.428,16.102 86.613,18.171 L83.165,21.959 L90.818,34.449 C92.206,36.663 93.353,38.188 94.265,39.023 C95.169,39.858 96.159,40.451 97.218,40.792 L97.218,41.022 L97.218,41.023 Z M79.794,41.023 L67.15,41.023 L67.15,40.792 C68.354,40.238 69.112,39.556 69.422,38.742 C69.733,37.926 69.888,36.09 69.888,33.225 L69.888,7.275 C69.888,5.515 69.822,4.162 69.688,3.217 L70.465,4.062 L76.939,11.107 L76.939,33.225 C76.92,36.11 77.076,37.946 77.415,38.742 C77.745,39.538 78.541,40.217 79.795,40.792 L79.795,41.022 L79.794,41.023 Z M96.305,11.305 L109.426,11.305 L109.426,11.595 C108.493,11.858 107.842,12.237 107.465,12.732 C107.077,13.228 106.901,14.044 106.92,15.18 C106.92,16.317 107.348,18.55 108.203,21.89 L112.127,36.828 L115.757,23.551 C116.836,20.026 117.311,17.306 117.177,15.413 C117.039,13.509 116.127,12.237 114.417,11.596 L114.417,11.305 L123.974,11.305 L123.974,11.54 C122.936,12.033 121.954,13.132 121.051,14.84 C120.139,16.55 118.981,19.842 117.574,24.717 L111.864,44.637 C109.883,51.552 107.077,55.009 103.454,55.009 C102.2,55.009 101.161,54.64 100.326,53.903 C99.49,53.163 99.073,52.31 99.073,51.319 C99.073,50.339 99.403,49.474 100.073,48.716 C100.733,47.977 101.588,47.608 102.628,47.608 C103.675,47.608 104.531,47.968 105.191,48.686 C105.852,49.406 106.221,50.328 106.299,51.465 C107.745,50.25 109.009,47.861 110.087,44.297 L110.99,40.995 L106.862,41.034 L101.85,23.435 C100.452,18.618 99.442,15.549 98.84,14.239 C98.228,12.938 97.382,12.033 96.305,11.539 L96.305,11.305 L96.305,11.305 Z M127.675,8.507 C127.675,7.887 127.345,7.127 126.685,6.235 C126.023,5.343 125.694,4.428 125.694,3.496 C125.694,2.574 126.043,1.759 126.742,1.05 C127.442,0.35 128.345,3.55271368e-15 129.442,3.55271368e-15 C130.522,3.55271368e-15 131.414,0.388 132.132,1.165 C132.852,1.942 133.212,2.943 133.212,4.158 C133.212,5.935 132.375,7.828 130.715,9.819 C129.045,11.809 127.218,13.431 125.228,14.686 L125.005,14.569 C126.782,12.315 127.675,10.295 127.675,8.507 L127.675,8.507 Z M140.485,39.917 C141.758,39.917 142.825,39.538 143.7,38.781 C144.575,38.032 145.01,36.955 145.01,35.557 C145.01,34.138 144.554,32.971 143.642,32.069 C142.739,31.167 141.631,30.389 140.349,29.749 C139.022206,29.0894341 137.710855,28.3992493 136.416,27.679 C135.134,26.931 134.027,25.892 133.124,24.542 C132.211,23.202 131.744,21.599 131.725,19.736 C131.705,17.026 132.628,14.831 134.482,13.142 C136.348,11.45 138.65,10.605 141.398,10.605 C143.399,10.605 145.671,11.091 148.216,12.051 L148.216,19.406 L147.983,19.406 C145.389,14.743 142.893,12.412 140.485,12.412 C139.369,12.412 138.425,12.762 137.67,13.46 C136.911,14.16 136.523,15.133 136.503,16.374 C136.503,18.474 138.106,20.298 141.311,21.843 C142.661,22.483 143.991,23.192 145.322,23.969 C146.662,24.746 147.788,25.844 148.692,27.242 C149.595,28.652 150.061,30.321 150.08,32.255 C150.1,35.148 149.148,37.46 147.215,39.159 C145.292,40.869 142.835,41.723 139.854,41.723 C136.882,41.723 134.163,41.121 131.725,39.917 L131.608,31.39 L131.899,31.39 C134.659,37.07 137.523,39.917 140.485,39.917 L140.485,39.917 Z"/>
    <g transform="translate(153 5)">
      <polygon fill="#70C936" points="0 38.2 16.4 38.1 32.7 38.2 16.4 13"/>
      <polygon fill="#3AB54A" points="28.1 31.1 24.4 25.4 8.3 25.4"/>
      <polygon fill="#70C936" points="16.4 5.1 3.8 25.4 16.4 25.3 28.9 25.4"/>
      <polygon fill="#3AB54A" points="24.9 18.9 22 14.3 10.7 14.3"/>
      <polygon fill="#70C936" points="16.4 0 7.7 14.299 16.4 14.2 25 14.299"/>
      <path fill="#FF9" d="M7.4996 7.6996C7.8006 7.6996 7.9996 8.0996 8.1006 8.6996 8.6996 8.8006 9.1006 9.0006 9.1006 9.3006 9.1006 9.5996 8.6996 9.8006 8.1006 9.8996 7.9996 10.5006 7.8006 10.8996 7.4996 10.8996 7.1996 10.8996 6.9996 10.5006 6.8996 9.8996 6.2996 9.8006 5.8996 9.5006 5.8996 9.3006 5.8996 9.0006 6.2996 8.8006 6.8996 8.6996 6.8996 8.0996 7.1996 7.6996 7.4996 7.6996M15.6998 4.5004C15.9998 4.5004 16.1998 4.8994 16.3008 5.5004 16.8998 5.6004 17.3008 5.8004 17.3008 6.1004 17.3008 6.3994 16.8998 6.6004 16.3008 6.6994 16.1998 7.3004 15.9998 7.6994 15.6998 7.6994 15.3998 7.6994 15.1998 7.3004 15.0998 6.6994 14.4998 6.6004 14.0998 6.3994 14.0998 6.1004 14.0998 5.8004 14.4998 5.6004 15.0998 5.5004 15.1998 4.8994 15.3998 4.5004 15.6998 4.5004M10.9996.1996C11.3006.1996 11.4996.5996 11.6006 1.1996 12.1996 1.3006 12.6006 1.5006 12.6006 1.8006 12.6006 2.0996 12.1996 2.3006 11.6006 2.3996 11.4996 3.0006 11.3006 3.3996 10.9996 3.3996 10.6996 3.3996 10.4996 3.0006 10.3996 2.3996 9.8006 2.3006 9.3996 2.0996 9.3996 1.8006 9.3996 1.5006 9.8006 1.3006 10.3996 1.1996 10.4996.5996 10.6996.1996 10.9996.1996M12.1002 15.1996C12.4002 15.1996 12.6002 15.5996 12.7002 16.1996 13.3002 16.3006 13.7002 16.5006 13.7002 16.8006 13.7002 17.0996 13.3002 17.3006 12.7002 17.3996 12.6002 18.0006 12.4002 18.3996 12.1002 18.3996 11.8002 18.3996 11.6002 18.0006 11.4992 17.3996 10.9002 17.3006 10.4992 17.0996 10.4992 16.8006 10.4992 16.5006 10.9002 16.3006 11.4992 16.1996 11.4992 15.5996 11.8002 15.1996 12.1002 15.1996M5.5001 18.8002C5.8001 18.8002 6.0001 19.1992 6.1001 19.8002 6.7001 19.9002 7.1001 20.1002 7.1001 20.4002 7.1001 20.6992 6.7001 20.9002 6.1001 21.0002 6.0001 21.6002 5.8001 22.0002 5.5001 22.0002 5.2001 22.0002 5.0001 21.6002 4.9001 21.0002 4.3001 20.9002 3.9001 20.6992 3.9001 20.4002 3.9001 20.1002 4.3001 19.9002 4.9001 19.8002 5.0001 19.1992 5.2001 18.8002 5.5001 18.8002M20.9 16.1C21.2 16.1 21.4 16.5 21.5 17.1 22.1 17.2 22.5 17.5 22.5 17.7 22.5 18 22.1 18.2 21.5 18.3 21.4 18.9 21.2 19.3 20.9 19.3 20.6 19.3 20.4 18.9 20.3 18.3 19.7 18.2 19.3 18 19.3 17.7 19.3 17.4 19.7 17.2 20.3 17.1 20.4 16.5 20.6 16.1 20.9 16.1M4.1998 32.8998C4.4998 32.8998 4.6998 33.2998 4.7998 33.8998 5.3998 34.0008 5.7998 34.1998 5.7998 34.5008 5.7998 34.7998 5.3998 35.0008 4.7998 35.0998 4.6998 35.6998 4.4998 36.0998 4.1998 36.0998 3.8998 36.0998 3.6998 35.6998 3.5998 35.0998 2.9998 35.0008 2.5998 34.6998 2.5998 34.5008 2.5998 34.1998 2.9998 34.0008 3.5998 33.8998 3.6998 33.2998 3.8998 32.8998 4.1998 32.8998M1.6002 27.0004C1.9002 27.0004 2.1002 27.3994 2.2002 28.0004 2.8002 28.1004 3.2002 28.3004 3.2002 28.6004 3.2002 28.8994 2.8002 29.1004 2.2002 29.1994 2.1002 29.8004 1.9002 30.1994 1.6002 30.1994 1.3002 30.1994 1.1002 29.8004 1.0002 29.1994.4002 29.1004.0002 28.8994.0002 28.6004.0002 28.3004.4002 28.1004 1.0002 28.0004 1.1002 27.3994 1.4002 27.0004 1.6002 27.0004M22.9 31.8998C23.2 31.8998 23.4 32.2998 23.5 32.8998 24.1 33.0008 24.5 33.1998 24.5 33.5008 24.5 33.7998 24.1 34.0008 23.5 34.0998 23.4 34.6998 23.2 35.0998 22.9 35.0998 22.6 35.0998 22.4 34.6998 22.3 34.0998 21.7 34.0008 21.3 33.7998 21.3 33.5008 21.3 33.1998 21.7 33.0008 22.3 32.8998 22.4 32.2998 22.6 31.8998 22.9 31.8998" transform="translate(4 1.2)"/>
    </g>
  </g>
</svg>
