<svg xmlns="http://www.w3.org/2000/svg" width="24" height="24" viewBox="0 0 24 24">
  <g fill="none" fill-rule="evenodd">
    <rect width="23" height="23" x=".5" y=".5" fill="#FFF" stroke="#B00" rx="2"/>
    <path fill="#666" fill-rule="nonzero" d="M8.33724654,18.108 L16.7893684,6.82173407 L15.699313,6 L7.23042105,17.3365762 L8.33724654,18.108 Z M8.30370637,12.0204598 C9.26519114,12.0204598 10.0561801,11.7437535 10.6766731,11.1903407 C11.2971662,10.636928 11.6074127,9.91301939 11.6074127,9.01861496 C11.6074127,8.12421053 11.2971662,7.40309695 10.6766731,6.85527424 C10.0561801,6.30745152 9.26519114,6.03354017 8.30370637,6.03354017 C7.34222161,6.03354017 6.55123269,6.30745152 5.93073961,6.85527424 C5.31024654,7.40309695 5,8.12421053 5,9.01861496 C5,9.91301939 5.30745152,10.639723 5.92235457,11.1987258 C6.54843767,11.7465485 7.34222161,12.0204598 8.30370637,12.0204598 Z M8.30370637,10.4608421 C7.87886427,10.4608421 7.52389751,10.3294765 7.23880609,10.0667452 C6.95371468,9.80401385 6.81116898,9.45463712 6.81116898,9.01861496 C6.81116898,8.59377285 6.95371468,8.24998615 7.23880609,7.98725485 C7.52389751,7.72452355 7.87886427,7.59315789 8.30370637,7.59315789 C8.73972853,7.59315789 9.10028532,7.72452355 9.38537673,7.98725485 C9.67046814,8.24998615 9.81301385,8.59377285 9.81301385,9.01861496 C9.81301385,9.45463712 9.67326316,9.80401385 9.39376177,10.0667452 C9.11426039,10.3294765 8.75090859,10.4608421 8.30370637,10.4608421 Z M15.7160831,18.0912299 C16.6775679,18.0912299 17.4685568,17.8145235 18.0890499,17.2611108 C18.7095429,16.7076981 19.0197895,15.9837895 19.0197895,15.089385 C19.0197895,14.1949806 18.7095429,13.473867 18.0890499,12.9260443 C17.4685568,12.3782216 16.6775679,12.1043102 15.7160831,12.1043102 C14.7545983,12.1043102 13.9636094,12.3782216 13.3431163,12.9260443 C12.7226233,13.473867 12.4123767,14.1949806 12.4123767,15.089385 C12.4123767,15.9837895 12.7198283,16.7104931 13.3347313,17.2694958 C13.9608144,17.8173186 14.7545983,18.0912299 15.7160831,18.0912299 Z M15.7160831,16.5316122 C15.291241,16.5316122 14.9362742,16.4002465 14.6511828,16.1375152 C14.3660914,15.8747839 14.2235457,15.5254072 14.2235457,15.089385 C14.2235457,14.6645429 14.3660914,14.3207562 14.6511828,14.0580249 C14.9362742,13.7952936 15.291241,13.663928 15.7160831,13.663928 C16.1521053,13.663928 16.512662,13.7952936 16.7977535,14.0580249 C17.0828449,14.3207562 17.2253906,14.6645429 17.2253906,15.089385 C17.2253906,15.5254072 17.0856399,15.8747839 16.8061385,16.1375152 C16.5266371,16.4002465 16.1632853,16.5316122 15.7160831,16.5316122 Z"/>
  </g>
</svg>
